<?xml version="1.0" encoding="iso-8859-1"?>
<!-- Generator: Adobe Illustrator 19.0.0, SVG Export Plug-In . SVG Version: 6.00 Build 0)  -->
<svg version="1.1" id="Layer_1" xmlns="http://www.w3.org/2000/svg" xmlns:xlink="http://www.w3.org/1999/xlink" x="0px" y="0px"
	 viewBox="0 0 473.935 473.935" style="enable-background:new 0 0 473.935 473.935;" xml:space="preserve">
<circle style="fill:#D7DABA;" cx="236.967" cy="236.967" r="236.967"/>
<path style="fill:#357180;" d="M309.528,212.043c0,4.715-3.82,8.535-8.535,8.535H173.892c-4.715,0-8.535-3.82-8.535-8.535V84.95
	c0-4.715,3.82-8.535,8.535-8.535h127.097c4.715,0,8.535,3.82,8.535,8.535v127.094H309.528z"/>
<path style="fill:#ECEDEA;" d="M263.381,183.325l-4.823-12.67h-41.04l-4.816,12.947c-1.886,5.051-3.495,8.46-4.823,10.223
	c-1.328,1.77-3.51,2.653-6.541,2.653c-2.574,0-4.846-0.943-6.818-2.825s-2.96-4.015-2.96-6.402c0-1.377,0.228-2.799,0.688-4.273
	c0.46-1.467,1.22-3.51,2.271-6.129l25.826-65.56c0.73-1.882,1.616-4.142,2.653-6.784c1.029-2.642,2.133-4.834,3.304-6.578
	s2.713-3.158,4.61-4.236c1.908-1.078,4.262-1.62,7.061-1.62c2.844,0,5.224,0.543,7.124,1.62c1.908,1.078,3.442,2.47,4.617,4.165
	c1.171,1.699,2.155,3.525,2.96,5.474c0.804,1.953,1.826,4.557,3.061,7.817l26.376,65.145c2.069,4.958,3.098,8.565,3.098,10.814
	c0,2.342-0.973,4.486-2.93,6.44c-1.946,1.949-4.296,2.926-7.053,2.926c-1.609,0-2.99-0.284-4.135-0.861
	c-1.149-0.569-2.11-1.351-2.885-2.342c-0.782-0.984-1.624-2.5-2.514-4.543C264.791,186.693,264.024,184.889,263.381,183.325z
	 M222.887,155.303h30.17l-15.225-41.665L222.887,155.303z"/>
<path style="fill:#D62127;" d="M233.596,362.572c0,4.715-3.828,8.535-8.535,8.535H97.964c-4.715,0-8.535-3.82-8.535-8.535V235.478
	c0-4.715,3.82-8.535,8.535-8.535h127.097c4.707,0,8.535,3.82,8.535,8.535V362.572z"/>
<path style="fill:#ECEDEA;" d="M165.956,348.42h-30.847c-4.456,0-7.637-0.999-9.538-2.997c-1.908-1.994-2.859-5.175-2.859-9.538
	v-75.887c0-4.449,0.973-7.652,2.922-9.605c1.949-1.949,5.108-2.922,9.47-2.922h32.711c4.816,0,8.995,0.299,12.528,0.894
	c3.536,0.595,6.702,1.744,9.508,3.439c2.384,1.429,4.494,3.225,6.335,5.407c1.833,2.181,3.237,4.595,4.195,7.233
	c0.965,2.642,1.448,5.429,1.448,8.367c0,10.099-5.051,17.489-15.15,22.174c13.272,4.224,19.906,12.441,19.906,24.655
	c0,5.646-1.456,10.728-4.34,15.252c-2.892,4.52-6.795,7.865-11.708,10.021c-3.076,1.287-6.615,2.193-10.604,2.72
	C175.939,348.155,171.284,348.42,165.956,348.42z M143.165,262.823v26.103h18.731c5.1,0,9.033-0.486,11.809-1.448
	c2.776-0.965,4.905-2.799,6.372-5.508c1.149-1.931,1.717-4.09,1.717-6.477c0-5.089-1.811-8.483-5.437-10.155
	c-3.633-1.676-9.156-2.514-16.599-2.514H143.165z M164.444,303.586h-21.283v29.474h21.968c13.818,0,20.726-4.98,20.726-14.941
	c0-5.093-1.792-8.789-5.373-11.087C176.912,304.742,171.553,303.586,164.444,303.586z"/>
<path style="fill:#65A844;" d="M385.457,362.572c0,4.715-3.82,8.535-8.535,8.535h-127.09c-4.715,0-8.535-3.82-8.535-8.535V235.478
	c0-4.715,3.82-8.535,8.535-8.535h127.09c4.715,0,8.535,3.82,8.535,8.535V362.572z"/>
<path style="fill:#ECEDEA;" d="M358.205,320.712c0,3.218-0.797,6.694-2.376,10.436c-1.587,3.742-4.079,7.413-7.476,11.016
	c-3.398,3.607-7.731,6.529-13.01,8.782c-5.283,2.253-11.439,3.371-18.462,3.371c-5.328,0-10.166-0.505-14.529-1.512
	s-8.325-2.582-11.876-4.718c-3.566-2.133-6.832-4.947-9.822-8.438c-2.66-3.169-4.932-6.713-6.81-10.638
	c-1.886-3.929-3.296-8.116-4.239-12.565c-0.935-4.453-1.411-9.182-1.411-14.189c0-8.123,1.182-15.401,3.551-21.83
	c2.361-6.428,5.744-11.925,10.151-16.494c4.415-4.565,9.575-8.041,15.495-10.432c5.927-2.384,12.236-3.581,18.945-3.581
	c8.172,0,15.45,1.635,21.83,4.894c6.38,3.259,11.27,7.285,14.668,12.082c3.39,4.797,5.093,9.332,5.093,13.601
	c0,2.342-0.827,4.408-2.477,6.196c-1.65,1.789-3.656,2.687-5.994,2.687c-2.616,0-4.576-0.621-5.89-1.856
	c-1.31-1.242-2.761-3.375-4.37-6.406c-2.668-5.007-5.796-8.745-9.399-11.225c-3.603-2.477-8.045-3.719-13.332-3.719
	c-8.397,0-15.091,3.192-20.067,9.575c-4.984,6.38-7.476,15.45-7.476,27.203c0,7.85,1.104,14.38,3.304,19.588
	c2.208,5.212,5.328,9.104,9.369,11.671c4.041,2.574,8.771,3.854,14.185,3.854c5.875,0,10.844-1.456,14.907-4.37
	c4.064-2.915,7.132-7.199,9.194-12.842c0.868-2.664,1.949-4.834,3.237-6.511c1.287-1.673,3.353-2.511,6.196-2.511
	c2.432,0,4.524,0.853,6.264,2.548C357.329,316.08,358.205,318.19,358.205,320.712z"/>
<g>
</g>
<g>
</g>
<g>
</g>
<g>
</g>
<g>
</g>
<g>
</g>
<g>
</g>
<g>
</g>
<g>
</g>
<g>
</g>
<g>
</g>
<g>
</g>
<g>
</g>
<g>
</g>
<g>
</g>
</svg>
