<?xml version="1.0" encoding="iso-8859-1"?>
<!-- Generator: Adobe Illustrator 19.0.0, SVG Export Plug-In . SVG Version: 6.00 Build 0)  -->
<svg version="1.1" id="Layer_1" xmlns="http://www.w3.org/2000/svg" xmlns:xlink="http://www.w3.org/1999/xlink" x="0px" y="0px"
	 viewBox="0 0 512 512" style="enable-background:new 0 0 512 512;" xml:space="preserve">
<path style="fill:#5D9BEB;" d="M512,256.006C512,397.402,397.394,512.004,256.004,512C114.606,512.004,0,397.402,0,256.006
	C-0.007,114.61,114.606,0,256.004,0C397.394,0,512,114.614,512,256.006z"/>
<path style="fill:#4988DB;" d="M512,256.005c0-15.195-1.399-30.054-3.937-44.522c-0.39-0.423-76.517-76.567-77.046-77.046
	c-2.787-3.289-6.711-5.372-11.088-5.372H92.073c-8.422,0.001-15.273,7.614-15.273,16.972v35.296h1.517v1.517L99.2,202.565v172.901
	c0,2.455,1.264,4.529,3.093,5.89c0.436,0.587,0.93,1.081,1.517,1.517c0.436,0.586,126.807,126.957,127.394,127.393
	c0.161,0.217,0.381,0.366,0.559,0.559c7.983,0.75,16.062,1.173,24.241,1.173C397.394,512.004,512,397.401,512,256.005z"/>
<path style="fill:#F4F6F9;" d="M435.2,146.038c0-9.359-6.85-16.972-15.273-16.972H92.073c-8.422,0-15.273,7.613-15.273,16.972
	v35.295h22.4v194.133c0,4.124,3.343,7.467,7.467,7.467s7.467-3.343,7.467-7.467V181.333h22.4v156.8c0,4.124,3.343,7.467,7.467,7.467
	c4.124,0,7.467-3.343,7.467-7.467v-148.39c4.428,2.523,9.142,5.122,14.324,7.942c21.733,11.835,48.781,26.556,73.813,48.5
	l1.111,0.977c24.365,21.361,44.155,38.715,71.524,38.715c3.267,0,6.646-0.247,10.15-0.766c16.437-2.427,29.275-14.57,38.143-30.98
	v84.002c0,4.124,3.343,7.467,7.467,7.467c4.124,0,7.467-3.343,7.467-7.467V188.8c0-0.107-0.057-0.194-0.061-0.299
	c0.301-2.448,0.707-4.841,1.218-7.168h21.243v194.133c0,4.124,3.343,7.467,7.467,7.467c4.124,0,7.467-3.343,7.467-7.467V181.333
	h22.4V146.038z M91.733,146.038c0-1.254,0.54-2.001,0.339-2.038l29.641-0.009c0.06,0.838,0.179,3.882,0.182,14.836
	c0,2.694,0.751,5.171,1.835,7.572H91.733V146.038z M320.21,270.339c-26.043,3.836-43.378-11.375-69.646-34.405l-1.116-0.977
	c-26.279-23.038-54.133-38.201-76.515-50.385c-16.924-9.213-36.105-19.654-36.105-25.747c-0.002-8.98-0.081-12.999-0.162-14.836
	l239.365-0.066c-7.04,11.472-15.798,30.038-16.133,51.948C359.4,228.941,344.083,266.814,320.21,270.339z M420.267,166.4h-38.933
	c4.388-10.622,9.87-18.662,12.741-22.484l25.456-0.007c0.197,0.128,0.736,0.875,0.736,2.129V166.4z"/>
<g>
</g>
<g>
</g>
<g>
</g>
<g>
</g>
<g>
</g>
<g>
</g>
<g>
</g>
<g>
</g>
<g>
</g>
<g>
</g>
<g>
</g>
<g>
</g>
<g>
</g>
<g>
</g>
<g>
</g>
</svg>
