<?xml version="1.0" standalone="no"?><!DOCTYPE svg PUBLIC "-//W3C//DTD SVG 1.1//EN" "http://www.w3.org/Graphics/SVG/1.1/DTD/svg11.dtd"><svg t="1497422422725" class="icon" style="" viewBox="0 0 1024 1024" version="1.1" xmlns="http://www.w3.org/2000/svg" p-id="2451" xmlns:xlink="http://www.w3.org/1999/xlink" width="32" height="32"><defs><style type="text/css"></style></defs><path d="M458.005248 863.178221c5.221932 11.877515 19.025309 17.240663 30.826076 11.987009 11.79872-5.259794 17.133216-19.140942 11.909238-31.020504L364.256074 533.858844c0.756223-1.442862 1.514493-2.90312 2.290159-4.39203 30.963199-59.519582 66.060555-126.968763 246.36506-110.87318 32.878828 2.929726 65.034179-2.49789 95.675036-16.146749 1.896186-0.839111 3.799536-1.722224 5.684466-2.631944 27.798113-13.380752 54.270021-33.617655 78.68713-60.131519 38.21537-41.498136 71.895447-99.744725 92.400456-159.803589 7.81192-22.873963 12.998035-44.059472 15.001669-61.272505 1.898233-16.267499 2.477424-39.156812-14.288424-50.04786-4.656043-3.02387-21.379936-11.423167-41.283242 7.4159-2.49789 2.363837-4.957919 4.714372-7.393387 7.04444-51.848878 49.564859-86.09689 82.312704-276.325419 17.924231C509.875616 83.619466 457.841519 75.887364 406.411173 77.962629c-41.187051 1.656733-82.035388 9.583263-121.382535 23.553439-67.237357 23.860431-107.017362 57.193607-108.677165 58.595536-1.473561 1.24741-2.741437 2.63399-3.833305 4.128017-9.730619 6.091742-13.778818 18.622126-9.001001 29.466102L458.005248 863.178221zM302.381865 145.220453c79.335906-27.699875 161.362085-27.601638 243.786329 0.294712 97.559966 33.015951 166.66895 44.025703 217.503732 34.634822 37.960567-7.015787 63.647599-24.732288 86.055958-44.546565-2.854001 11.7056-7.170307 26.01142-13.487176 42.612517-17.457604 45.861514-42.62582 89.182158-70.857814 121.975029-44.991704 52.253084-94.8963 76.334549-148.33949 71.557756-92.273567-8.232498-161.305803 3.609201-211.045647 36.217876-31.622208 20.729114-51.077306 46.852074-65.611324 71.635527L213.355249 190.82C226.50985 181.295066 257.779018 160.79415 302.381865 145.220453zM825.029366 618.280582c-79.505775-34.542724-189.905164-55.267744-315.589678-55.267744-6.90834 0-13.764492 0.067538-20.574594 0.194428 0 0-22.363334-2.482541-22.363334 28.500101 0 29.426193 22.363334 28.028357 22.363334 28.028357 6.780427-0.134053 13.628392-0.203638 20.540825-0.203638 229.699496 0 389.7057 74.18049 389.7057 140.708696 0 33.865295-39.503712 69.739341-108.652606 96.509031l0 0.077771c-68.560492 26.297946-164.940586 45.24446-278.264585 45.24446-229.697449 0-389.707746-74.18356-389.707746-140.713812 0-33.863249 39.505759-70.616314 108.652606-97.382934l0-0.077771c8.361435-3.204995 17.128099-6.28924 26.292829-9.234315 0 0 29.728068 1.958608 29.728068-29.410843 0-38.443567-29.728068-29.721929-29.728068-29.721929-118.66054 34.679847-193.870476 94.245478-193.870476 164.680667-0.01535 57.477063 50.090838 107.726513 133.033899 143.121652 79.501682 34.538631 189.893908 55.254441 315.567165 55.254441 254.185166 0 445.88214-84.743056 445.88214-197.200314C958.054055 703.915961 907.96117 653.66958 825.029366 618.280582zM438.09478 348.207563c23.231097-10.441816 39.306214-27.384697 48.221258-50.834782 8.91402-23.453155 8.18338-46.868447-2.196015-70.244854-1.867534-4.208858-5.063319-7.212262-9.583263-9.017374-4.514827-1.799996-8.860808-1.76725-13.043061 0.113587l-49.723471 22.347984c-4.644787 2.088568-7.762801 5.217838-9.349949 9.390881-1.588171 4.175089-1.341554 8.594749 0.735757 13.273305 2.075265 4.674463 5.201465 7.853875 9.383718 9.522887 4.182252 1.671059 8.596795 1.464351 13.241582-0.624217l31.597649-14.201443c1.433652 12.443403-0.88823 24.049742-6.972808 34.82311-6.089695 10.777461-14.862499 18.738783-26.322505 23.889083-14.56574 6.54609-29.075199 7.021927-43.542702 1.439792-14.46034-5.584182-24.953322-15.71696-31.472805-30.40345-6.585999-14.835893-7.142677-29.484521-1.667989-43.938722 5.474688-14.45113 15.569604-24.985044 30.289863-31.602765 15.643282-7.031137 31.16172-7.015787 46.559409 0.037862 5.080715 2.25025 9.717316 2.433422 13.901615 0.552585 4.333702-1.945305 7.417947-5.257747 9.249665-9.927093 1.831718-4.6673 1.771343-9.200546-0.173962-13.583366-1.599428-3.601015-4.604878-6.376221-9.006118-8.341992-25.067932-11.264555-49.91176-11.364839-74.538647-0.294712-23.23826 10.443863-39.306214 27.400047-48.210002 50.875714-8.904811 23.470551-8.160867 46.914496 2.229784 70.320579 10.392698 23.413246 27.248597 39.613206 50.564629 48.606021C391.58449 359.381044 414.858566 358.65245 438.09478 348.207563z" p-id="2452" fill="#888888"></path></svg>