<?xml version="1.0" standalone="no"?><!DOCTYPE svg PUBLIC "-//W3C//DTD SVG 1.1//EN" "http://www.w3.org/Graphics/SVG/1.1/DTD/svg11.dtd"><svg class="icon" width="16px" height="16.00px" viewBox="0 0 1024 1024" version="1.1" xmlns="http://www.w3.org/2000/svg"><path fill="#888888" d="M703.127973 97.070366c-79.706073 0-142.466406 39.711302-191.219052 105.186596-48.80586-65.530556-111.453624-105.186596-191.215982-105.186596-143.712853 0-260.647568 126.93392-260.647568 282.959783 0 93.0977 41.917656 158.401071 75.525667 210.821423 97.842999 152.410349 332.38989 317.025234 342.728849 325.046293 10.054466 7.680281 21.858869 11.524004 33.495442 11.524004 11.753235 0 23.446093-3.843722 33.501582-11.524004 10.450504-8.021059 244.941111-172.635943 342.780017-325.046293 33.613128-52.420351 75.586045-117.723722 75.586045-210.821423C963.72028 224.004285 846.729281 97.070366 703.127973 97.070366L703.127973 97.070366 703.127973 97.070366 703.127973 97.070366zM846.729281 555.433245c-95.132131 148.227896-335.441536 315.778787-335.441536 315.778787S270.979363 703.661141 175.795041 555.433245c-35.13895-54.684013-66.491486-106.712419-66.491486-178.566287 0-124.051128 92.644354-224.660256 206.924486-224.660256 84.512773 0 145.010467 55.019674 177.268673 133.764816l0-0.336684 0.056285 0c2.371114 8.188889 9.434312 14.179611 17.679486 14.179611 8.304528 0 15.308372-5.990722 17.682556-14.179611l0.224115 0c32.254112-78.576289 92.756923-133.428132 177.040465-133.428132 114.336416 0 206.981793 100.609128 206.981793 224.660256C913.272958 448.720826 881.867208 500.749232 846.729281 555.433245L846.729281 555.433245 846.729281 555.433245 846.729281 555.433245zM846.729281 555.433245" /></svg>