<?xml version="1.0" standalone="no"?><!DOCTYPE svg PUBLIC "-//W3C//DTD SVG 1.1//EN" "http://www.w3.org/Graphics/SVG/1.1/DTD/svg11.dtd"><svg t="1496976861378" class="icon" style="" viewBox="0 0 1024 1024" version="1.1" xmlns="http://www.w3.org/2000/svg" p-id="6687" xmlns:xlink="http://www.w3.org/1999/xlink" width="16" height="16"><defs><style type="text/css"></style></defs><path d="M366.688 446.594l220.767 0c8.63 0 15.685-7.266 15.685-16.19 0-8.918-7.055-16.191-15.685-16.191L366.688 414.213c-8.637 0-15.685 7.273-15.685 16.191C351.002 439.329 358.051 446.594 366.688 446.594z" p-id="6688" fill="#FF6633"></path><path d="M460.733 349.451l126.721 0c8.63 0 15.685-7.266 15.685-16.187 0-8.918-7.055-16.19-15.685-16.19L460.733 317.074c-8.629 0-15.678 7.272-15.678 16.19C445.055 342.185 452.104 349.451 460.733 349.451z" p-id="6689" fill="#FF6633"></path><path d="M366.688 543.736l220.767 0c8.63 0 15.685-7.268 15.685-16.191 0-8.918-7.055-16.191-15.685-16.191L366.688 511.354c-8.637 0-15.685 7.273-15.685 16.191C351.002 536.469 358.051 543.736 366.688 543.736z" p-id="6690" fill="#FF6633"></path><path d="M665.885 673.262c0 17.844-14.104 32.377-31.376 32.377L383.672 705.639l0 32.381 313.519 0L697.191 349.451l-31.307 0L665.884 673.262z" p-id="6691" fill="#FF6633"></path><path d="M509.84 64.488c-247.895 0-448.853 200.958-448.853 448.853 0 247.895 200.958 448.853 448.853 448.853 247.895 0 448.853-200.958 448.853-448.853C958.693 265.446 757.735 64.488 509.84 64.488zM728.561 738.02c0 17.85-14.033 32.389-31.369 32.389L383.672 770.409c-17.273 0-31.376-14.539-31.376-32.389l0-32.381-31.299 0c-17.343 0-31.377-14.533-31.377-32.377l0-388.57c0-17.842 14.034-32.381 31.377-32.381l313.511 0c17.272 0 31.376 14.539 31.376 32.381l0 32.382 31.307 0c17.336 0 31.369 14.538 31.369 32.377L728.56 738.02z" p-id="6692" fill="#FF6633"></path><path d="M603.139 624.689c0-8.918-7.055-16.191-15.685-16.191L366.688 608.498c-8.637 0-15.685 7.273-15.685 16.191 0 8.924 7.048 16.189 15.685 16.189l220.767 0C596.084 640.879 603.139 633.613 603.139 624.689z" p-id="6693" fill="#FF6633"></path></svg>