<?xml version="1.0" standalone="no"?><!DOCTYPE svg PUBLIC "-//W3C//DTD SVG 1.1//EN" "http://www.w3.org/Graphics/SVG/1.1/DTD/svg11.dtd"><svg t="1496977057314" class="icon" style="" viewBox="0 0 1024 1024" version="1.1" xmlns="http://www.w3.org/2000/svg" p-id="9153" xmlns:xlink="http://www.w3.org/1999/xlink" width="16" height="16"><defs><style type="text/css"></style></defs><path d="M634.271276 552.58944 389.087111 552.58944c-4.503571 0-8.157797 3.653203-8.157797 8.154727l0 16.347317c0 4.548596 3.653203 8.196683 8.157797 8.196683l245.185188 0c4.499477 0 8.15882-3.647063 8.15882-8.196683l-0.002047-16.347317C642.42805 556.242643 638.771777 552.58944 634.271276 552.58944zM511.482719 343.052147c11.260461 0 20.392446-9.129938 20.392446-20.384259 0-11.258415-9.131985-20.430308-20.392446-20.430308-11.302417 0-20.424168 9.171893-20.424168 20.430308C491.05855 333.922209 500.182348 343.052147 511.482719 343.052147zM634.271276 634.332163 389.087111 634.332163c-4.503571 0-8.157797 3.65525-8.157797 8.154727l0 16.347317c0 4.50664 3.653203 8.156774 8.157797 8.156774l245.185188 0c4.499477 0 8.15882-3.64911 8.15882-8.156774l-0.002047-16.347317C642.42805 637.987413 638.771777 634.332163 634.271276 634.332163zM511.676124 64.021106c-247.255337 0-447.695438 200.440102-447.695438 447.696462s200.440102 447.696462 447.695438 447.696462c247.25636 0 447.696462-200.440102 447.696462-447.696462S758.932484 64.021106 511.676124 64.021106zM429.819814 307.362296l32.659841 0c0-18.014282 14.635325-32.657794 32.655747-32.657794l32.657794 0c18.013259 0 32.659841 14.646582 32.659841 32.657794l32.657794 0 0 65.277726-97.975429 0-65.315588 0L429.819814 307.362296zM724.168726 683.412998c0 39.810704-35.759435 65.317635-67.414389 65.317635L366.600981 748.730633c-26.247804 0-67.416436-33.007765-67.416436-67.376527L299.184545 407.355685c0-28.930913 29.633924-67.36834 61.278645-67.36834l36.696784 0 0 65.267493 228.610698 0 0-65.267493 32.106232 0c31.654954 0 66.290799 29.274744 66.290799 67.600631L724.167702 683.412998zM634.271276 470.846718 389.087111 470.846718c-4.503571 0-8.157797 3.693112-8.157797 8.196683l0 16.34527c0 4.508687 3.653203 8.157797 8.157797 8.157797l245.185188 0c4.499477 0 8.15882-3.648087 8.15882-8.157797l-0.002047-16.34527C642.42805 474.540853 638.771777 470.846718 634.271276 470.846718z" p-id="9154" fill="#d4237a"></path></svg>