<?xml version="1.0" standalone="no"?><!DOCTYPE svg PUBLIC "-//W3C//DTD SVG 1.1//EN" "http://www.w3.org/Graphics/SVG/1.1/DTD/svg11.dtd"><svg class="icon" width="16px" height="13.43px" viewBox="0 0 1220 1024" version="1.1" xmlns="http://www.w3.org/2000/svg"><path fill="#888888" d="M609.52381 103.521768C386.634848 103.521768 205.81155 281.994362 205.81155 502.30272 205.81155 722.611078 386.634848 901.083672 609.52381 901.083672 832.41277 901.083672 1013.236068 722.611078 1013.236068 502.30272 1013.236068 281.994362 832.41277 103.521768 609.52381 103.521768L609.52381 152.283672C805.624105 152.283672 964.474163 309.068678 964.474163 502.30272 964.474163 695.536762 805.624105 852.321768 609.52381 852.321768 413.423511 852.321768 254.573455 695.536762 254.573455 502.30272 254.573455 309.068678 413.423511 152.283672 609.52381 152.283672L609.52381 103.521768 609.52381 103.521768ZM786.578456 916.340931C953.027911 847.122959 1064.985936 685.28504 1064.985936 502.30528 1064.985936 254.278962 861.139446 53.086232 609.528998 53.086232 357.910157 53.086232 154.072057 254.274438 154.072057 502.30528 154.072057 557.702671 164.223558 611.672834 183.789722 662.281372 188.645358 674.840639 182.400333 688.958206 169.841066 693.813843 157.2818 698.66948 143.164232 692.424455 138.308596 679.865188 137.270745 677.180748 136.256748 674.487788 135.266696 671.78655 133.41622 671.863749 131.555698 671.90272 129.685917 671.90272 58.060385 671.90272 0 614.59712 0 543.90272 0 478.897902 49.090899 425.213508 112.679145 416.993374 153.650879 182.559974 360.559142 4.324328 609.528998 4.324328 858.491246 4.324328 1065.40562 182.563538 1106.37863 416.994688 1169.961945 425.219224 1219.047619 478.901362 1219.047619 543.90272 1219.047619 614.59712 1160.987234 671.90272 1089.361701 671.90272 1087.471543 671.90272 1085.590655 671.862955 1083.719924 671.78418 1036.183537 801.486443 935.380441 907.625204 804.22714 961.810715 803.065954 995.274976 775.215479 1022.050714 741.027499 1022.050714 706.101872 1022.050714 677.790179 994.10707 677.790179 959.635476 677.790179 925.163881 706.101872 897.220237 741.027499 897.220237 758.919183 897.220237 775.075167 904.553492 786.578456 916.340931ZM609.52771 611.404761C550.595467 611.404761 497.4722 600.760544 451.055605 583.062977 434.932997 576.915797 420.844929 570.360642 408.917884 563.855282 401.992256 560.077839 397.47084 557.265822 395.480775 555.882628 376.240694 542.509792 351.052635 561.329074 358.422152 583.571003 393.718128 690.097762 494.476025 763.483672 609.527701 763.483672 724.577109 763.483672 825.323515 690.100151 860.620278 583.571003 867.99007 561.328245 842.800094 542.508919 823.560241 555.883608 821.570687 557.266661 817.050097 560.078541 810.125512 563.855862 798.20012 570.361086 784.113723 576.916129 767.992695 583.063216 721.580368 600.760617 668.459778 611.404761 609.52771 611.404761L609.52771 611.404761Z" /></svg>