<?xml version="1.0" standalone="no"?><!DOCTYPE svg PUBLIC "-//W3C//DTD SVG 1.1//EN" "http://www.w3.org/Graphics/SVG/1.1/DTD/svg11.dtd"><svg t="1496899572401" class="icon" style="" viewBox="0 0 1024 1024" version="1.1" xmlns="http://www.w3.org/2000/svg" p-id="2508" xmlns:xlink="http://www.w3.org/1999/xlink" width="16" height="16"><defs><style type="text/css"></style></defs><path d="M166.305261 741.165696c-18.637297 18.506294-45.112289 46.411066-65.456725 74.188929-22.254222 30.397933-30.836999 51.697262-27.825966 69.066486 6.018997 34.725143 89.299365 75.271755 136.499523 99.369237 29.603724 15.093038 84.824777 49.037277 148.117897 38.064709 59.419306-10.297081 150.357238-63.718882 199.010716-106.717716 65.609222-58.007947 133.870241-134.332847 192.217979-214.913315l18.479683-26.223219c56.424647-82.329569 105.315569-172.301351 137.836168-253.563446 24.124093-60.28004 50.727018-144.590013 40.422772-204.04514-10.975638-63.319731-68.410445-123.152516-92.593899-145.946104C818.869595 37.356471 730.168957-4.998603 695.430509 1.023465c-17.364107 3.01001-34.535802 18.260662-55.6724 49.44564-19.293338 28.458467-36.667679 62.811069-47.851081 86.608676-14.992738 31.905497-28.274243 64.938852-37.39741 93.018637-14.455419 44.529937-13.986672 62.014813-12.378809 71.290476 3.111334 17.960787 15.434875 32.040594 36.610365 41.817755 14.627361 6.754869 31.772446 10.885573 48.359743 14.891415 6.691414 1.098178 16.339618 2.228083 20.81216 4.477659s10.736148 4.205418 10.07806 14.4851-6.11725 28.190319-24.657318 71.935259c-18.52881 40.79122-43.880037 86.023254-67.816836 120.994028-24.908067 34.365907-58.966934 73.467386-91.188682 104.702513-40.670451 39.374744-55.144292 48.068056-61.924748 50.818106s-14.459513-3.643535-14.459513-3.643535c-6.753845-5.994434-14.988644-21.622744-21.724067-31.899356-9.633876-14.676488-9.025938-19.132654-20.245161-30.579086-16.321196-16.653822-33.714983-23.520248-51.706474-20.403798-9.275663 1.60684-25.898781 7.058838-62.951283 35.655473C217.983078 692.631964 191.338191 716.258653 166.305261 741.165696zM318.389085 706.70256c7.084425 8.252198 13.330631 18.219723 19.85522 28.203624 8.469173 12.901799 16.984401 25.887523 26.246759 35.679012 21.663683 21.663683 39.874195 21.87554 65.950036 18.389619 8.094584-1.562831 32.70687-6.349577 93.731992-65.479242 34.119252-33.064059 70.183087-74.486757 96.481019-110.834092 25.694088-37.462912 52.573348-85.363119 72.220805-128.611678 35.113036-77.312544 31.346685-122.600868 30.112386-130.75379-0.00307-0.014329-0.00307-0.014329-0.00307-0.014329-2.844209-16.418425-24.103623-38.725867-43.146213-47.000582-12.302049-5.358863-27.2866-8.973741-41.782957-12.478085-12.591689-3.034574-15.000926-4.025288-25.043164-7.888868-6.254394-2.221942-5.253446-7.915478-4.934125-9.750551 0.859711-4.949477 3.839017-12.365504 9.615453-29.31306 7.958464-24.651177 19.680208-54.146414 33.012886-83.042924 33.877714-55.959994 46.990347-77.38828 51.233633-81.97238 3.394833-3.668098 19.360887-13.092164 38.465907-4.221793 20.810113 8.528534 46.055924 16.375439 82.039928 48.4887 42.118654 40.372623 58.482835 84.654881 64.344219 118.474258 6.529706 37.669652-2.148253 69.339752-32.731433 145.764951-31.303699 78.24185-80.547716 165.053172-134.944879 244.443349l-0.044009 0.05322-18.08872 25.67976c-56.52597 78.03818-121.364523 152.713255-184.468302 208.503354-61.68321 54.516908-118.664622 86.465391-156.343485 92.996121-33.82347 5.863431-64.694244-1.08999-116.876629-27.176065-22.795635-11.403447-74.800961-37.47724-90.670808-50.468081-13.673492-10.462882-13.246707-11.187496-12.564056-14.385824l1.226111-4.136845c2.782801-8.795658 14.59461-26.951926 74.472428-85.657877 22.711711-22.26241 46.533882-43.226043 67.080964-59.034483 20.506144-10.618449 26.74314-13.94471 30.597509-15.672319l0.287594-0.127933C315.639035 704.672006 316.933718 704.703733 318.389085 706.70256z" p-id="2509" fill="#d81e06"></path></svg>