<?xml version="1.0" standalone="no"?><!DOCTYPE svg PUBLIC "-//W3C//DTD SVG 1.1//EN" "http://www.w3.org/Graphics/SVG/1.1/DTD/svg11.dtd"><svg t="1496900936456" class="icon" style="" viewBox="0 0 1024 1024" version="1.1" xmlns="http://www.w3.org/2000/svg" p-id="7578" xmlns:xlink="http://www.w3.org/1999/xlink" width="16" height="16"><defs><style type="text/css"></style></defs><path d="M102.485 81.987c115.731 0 231.463 0 347.195 0 35.307 3.497 26.797 65.645 26.797 106.022 0 72.526 0 120.326 0 192.239 0 41.781 7.868 92.991-19.807 104.858-18.022 7.729-66.391 2.331-89.712 2.331-64.025 0-116.068 0-184.083 0-42.554 0-100.659 10.157-107.188-26.797 0-117.285 0-234.57 0-351.856 4.758-13.106 13.127-22.601 26.797-26.797zM150.254 161.213c0 83.498 0 166.995 0 250.493 83.498 0 166.995 0 250.493 0 0-84.663 0-169.325 0-253.988-83.109 0-166.219 0-249.328 0-1.358 0.195-1.265 1.842-1.165 3.495zM568.519 81.987c115.731 0 231.463 0 347.195 0 14.163 5.254 23.894 14.943 26.797 31.457 0 114.178 0 228.357 0 342.534-3.177 14.234-10.61 26.393-24.467 30.292-22.647 6.371-60.277 1.165-87.381 1.165-63.86 0-116.223 0-178.258 0-26.882 0-66.721 5.663-88.546-1.165-30.809-9.639-22.137-69.779-22.137-111.849 0-55.882 0-121.111 0-179.423 0-48.574-10.662-106.226 26.797-113.013zM616.288 161.213c0 83.498 0 166.995 0 250.493 83.498 0 166.995 0 250.493 0 0-84.663 0-169.325 0-253.988-83.109 0-166.219 0-249.328 0-1.358 0.195-1.265 1.842-1.165 3.495zM264.432 234.613c34.886-6.585 62.322 16.988 62.914 48.933 0.782 42.127-42.244 65.269-75.73 47.769-38.309-20.021-35.788-87.53 12.816-96.702zM730.466 234.613c82.175-15.353 80.599 114.787 0 101.362-51.293-8.543-52.948-91.47 0-101.362zM447.35 960.461c-114.566 0-229.133 0-343.7 0-14.269-4.372-23.907-13.376-27.962-27.962 0-116.896 0-233.794 0-350.69 3.394-10.261 11.228-22.235 23.301-25.632 22.806-6.417 60.06-1.165 87.381-1.165 62.794 0 119.676 0 178.258 0 26.346 0 64.685-5.881 88.546 1.165 32.281 9.53 23.301 68.694 23.301 110.683 0 64.546 0 119.605 0 185.248 0 45.318 9.759 104.307-29.127 108.353zM150.254 634.237c0 83.5 0 166.995 0 250.493 83.498 0 166.995 0 250.493 0 0-84.663 0-169.325 0-253.988-83.109 0-166.219 0-249.328 0-1.358 0.195-1.265 1.842-1.165 3.495zM942.511 586.468c0 32.622 0 65.245 0 97.867-2.718 33.011-0.389 71.069-1.165 106.022-82.721 0-165.442 0-248.163 0 0-19.029 0-38.06 0-57.089-23.302-2.717-51.65-0.389-76.896-1.165-2.718 73.79-0.388 152.625-1.165 228.356-15.146 0-30.292 0-45.438 0-39.069-7.83-27.962-66.455-27.962-113.013 0-64.943 0-118.377 0-180.588 0-27.153-5.495-67.86 1.165-89.712 7.948-26.07 42.411-22.137 76.896-22.137 58.301 0 110.241 0 168.938 0 0 51.651 0 103.305 0 154.956 26.02 0 52.041 0 78.061 0 0.775-51.264-1.553-105.633 1.165-154.956 37.564-2.223 72.359-1.676 74.565 31.457zM270.257 706.473c37.251-4.124 68.045 31.678 53.594 71.07-20.031 54.602-115.801 34.08-97.867-34.953 4.957-19.082 19.276-33.35 44.273-36.117zM777.069 960.461c-27.962 0-55.924 0-83.886 0 0.775-29.905-1.552-62.913 1.165-90.877 27.574 0 55.147 0 82.721 0 0 30.292 0 60.585 0 90.877zM942.511 869.584c0 19.807 0 39.613 0 59.42-3.239 16.567-12.926 26.687-27.962 31.457-19.807 0-39.613 0-59.42 0 0.775-29.905-1.552-62.913 1.165-90.877 28.739 0 57.477 0 86.217 0z" p-id="7579" fill="#707070"></path></svg>