<?xml version="1.0" standalone="no"?><!DOCTYPE svg PUBLIC "-//W3C//DTD SVG 1.1//EN" "http://www.w3.org/Graphics/SVG/1.1/DTD/svg11.dtd"><svg class="icon" width="16px" height="16.00px" viewBox="0 0 1024 1024" version="1.1" xmlns="http://www.w3.org/2000/svg"><path fill="#888888" d="M384 448C384 483.328 355.328 512 320 512 284.672 512 256 483.328 256 448 256 412.672 284.672 384 320 384 355.328 384 384 412.672 384 448M576 448C576 483.328 547.328 512 512 512 476.672 512 448 483.328 448 448 448 412.672 476.672 384 512 384 547.328 384 576 412.672 576 448M768 448C768 483.328 739.328 512 704 512 668.672 512 640 483.328 640 448 640 412.672 668.672 384 704 384 739.328 384 768 412.672 768 448M512 64C264.32 64 64 236.16 64 448 64 613.76 186.88 755.84 359.68 808.96L512 982.4 664.32 808.96C837.12 755.84 960 613.76 960 448 960 236.16 759.68 64 512 64M512 128C723.712 128 896 271.552 896 448 896 581.248 795.328 701.76 645.504 747.776L628.16 753.088 616.256 766.72 512 885.44 407.744 766.72 395.84 753.088 378.496 747.776C228.672 701.76 128 581.248 128 448 128 271.552 300.288 128 512 128" /></svg>