<?xml version="1.0" standalone="no"?><!DOCTYPE svg PUBLIC "-//W3C//DTD SVG 1.1//EN" "http://www.w3.org/Graphics/SVG/1.1/DTD/svg11.dtd"><svg t="1496988663460" class="icon" style="" viewBox="0 0 1024 1024" version="1.1" xmlns="http://www.w3.org/2000/svg" p-id="21503" xmlns:xlink="http://www.w3.org/1999/xlink" width="16" height="16"><defs><style type="text/css"></style></defs><path d="M512.119467 776.400356c-2.673067 0-6.571378-1.248711-16.908089-10.306133-6.914133-6.057956-15.711289-14.774756-25.440711-25.2096-22.140444-23.747556-46.477511-53.370311-68.529067-83.412622C365.854578 609.259378 306.488889 518.783289 306.488889 454.519467c0-54.9248 21.388089-106.562133 60.224711-145.400178C405.551644 270.279111 457.191111 248.888889 512.119467 248.888889c54.929067 0 106.568533 21.3888 145.405867 60.225422 38.836622 38.836622 60.224711 90.475378 60.224711 145.405156 0 64.133689-59.576889 154.689422-95.090489 202.961067-22.016 29.924267-46.365867 59.543467-68.564622 83.401244-9.683911 10.409244-18.435556 19.1232-25.306311 25.198933C518.530844 775.150933 514.715022 776.400356 512.119467 776.400356zM512.119467 284.736c-45.349689 0-87.986489 17.661867-120.055467 49.732267-32.067556 32.068978-49.728 74.704356-49.728 120.0512 0 26.761956 14.267733 78.924089 82.240711 175.451022 38.095644 54.097778 76.073956 97.763556 87.285333 108.885333 11.058489-11.777422 49.808356-56.770133 86.5856-108.541867 38.072889-53.594311 83.457422-127.598933 83.457422-175.794489 0-45.347556-17.660444-87.982933-49.728-120.0512C600.108089 302.397867 557.470578 284.736 512.119467 284.736zM512.119467 530.697244c-42.004622 0-76.177778-34.173156-76.177778-76.177778s34.173156-76.177778 76.177778-76.177778c42.004622 0 76.177778 34.173156 76.177778 76.177778S554.124089 530.697244 512.119467 530.697244zM512.119467 414.1888c-22.237867 0-40.330667 18.092089-40.330667 40.330667s18.092089 40.330667 40.330667 40.330667 40.330667-18.092089 40.330667-40.330667S534.357333 414.1888 512.119467 414.1888z" p-id="21504" fill="#ffffff"></path></svg>
