<?xml version="1.0" standalone="no"?><!DOCTYPE svg PUBLIC "-//W3C//DTD SVG 1.1//EN" "http://www.w3.org/Graphics/SVG/1.1/DTD/svg11.dtd"><svg t="1498054771038" class="icon" style="" viewBox="0 0 6144 1024" version="1.1" xmlns="http://www.w3.org/2000/svg" p-id="3824" xmlns:xlink="http://www.w3.org/1999/xlink" width="96" height="16"><defs><style type="text/css"></style></defs><path d="M1007.087494 453.671218 818.490413 617.28714C806.615379 629.004943 801.19712 645.888435 804.001562 662.43449L848.53351 925.24505C852.017427 946.06999 848.53936 960.995187 831.671763 973.434029 822.127533 980.45856 810.772928 984.041267 799.418323 984.041267 790.697414 984.041267 781.94727 981.931424 773.911686 977.654906L535.781898 847.725446C521.104764 839.914765 503.571728 839.914765 488.894593 847.725446L260.760464 977.656083C242.274291 987.512678 219.894877 985.846829 202.972317 973.435213 186.104723 960.996371 172.632164 946.098406 176.17105 925.246234L230.723212 656.97991C233.526486 640.433856 228.108225 623.550367 216.234365 611.832564L17.617064 453.671218C2.61481 438.927173-2.73328 416.853136 3.684896 396.750419 10.15687 376.647701 27.299295 362.01495 47.978266 358.960294L306.325073 313.061121C322.729549 310.645811 336.909649 300.216173 344.249385 285.16903L463.189142 31.063055C472.404745 12.099322 491.466308 0.103283 512.365144 0.103283 533.263981 0.103283 552.270577 12.098137 561.541146 31.063055L675.815795 285.163109C683.154362 300.214988 697.336806 310.648179 713.744787 313.063489L976.752026 358.961477C997.377197 361.987718 1014.573421 376.648884 1020.991597 396.751603 1027.437843 416.853136 1022.006714 438.927173 1007.087494 453.671218L1007.087494 453.671218Z" p-id="3825" fill="#ff8a00"></path><path d="M2286.072806 453.567935 2097.475725 617.183857C2085.600691 628.901661 2080.182432 645.785152 2082.98688 662.331206L2127.518822 925.141766C2131.002746 945.966707 2127.524672 960.891904 2110.657075 973.330746 2101.112845 980.355277 2089.75824 983.937984 2078.403635 983.937984 2069.682726 983.937984 2060.932582 981.828141 2052.896998 977.551622L1814.767213 847.622163C1800.090074 839.811482 1782.557043 839.811482 1767.879904 847.622163L1539.745779 977.552806C1521.259603 987.409395 1498.880192 985.743546 1481.957632 973.33193 1465.090035 960.893088 1451.617478 945.995123 1455.156365 925.14295L1509.708525 656.876627C1512.511802 640.330573 1507.093536 623.447085 1495.21968 611.729281L1296.602374 453.567935C1281.600122 438.82389 1276.252032 416.749853 1282.670208 396.647136 1289.142182 376.544419 1306.284608 361.911667 1326.963578 358.857011L1585.310387 312.957839C1601.714861 310.542529 1615.894963 300.11289 1623.234701 285.065748L1742.174458 30.959772C1751.390061 11.996039 1770.451622 0 1791.350458 0 1812.249293 0 1831.255891 11.994854 1840.526458 30.959772L1954.801107 285.059826C1962.139674 300.111705 1976.322118 310.544896 1992.730099 312.960206L2255.737338 358.858195C2276.362509 361.884436 2293.558733 376.545602 2299.976909 396.648319 2306.423155 416.749853 2300.992032 438.82389 2286.072806 453.567935L2286.072806 453.567935Z" p-id="3826" fill="#ff8a00"></path><path d="M3566.072806 453.567935 3377.475725 617.183857C3365.600691 628.901661 3360.182432 645.785152 3362.98688 662.331206L3407.518822 925.141766C3411.002746 945.966707 3407.524672 960.891904 3390.657075 973.330746 3381.112845 980.355277 3369.75824 983.937984 3358.403635 983.937984 3349.682726 983.937984 3340.932582 981.828141 3332.896998 977.551622L3094.767213 847.622163C3080.090074 839.811482 3062.557043 839.811482 3047.879904 847.622163L2819.745779 977.552806C2801.259603 987.409395 2778.880192 985.743546 2761.957632 973.33193 2745.090035 960.893088 2731.617478 945.995123 2735.156365 925.14295L2789.708525 656.876627C2792.511802 640.330573 2787.093536 623.447085 2775.21968 611.729281L2576.602374 453.567935C2561.600122 438.82389 2556.252032 416.749853 2562.670208 396.647136 2569.142182 376.544419 2586.284608 361.911667 2606.963578 358.857011L2865.310387 312.957839C2881.714861 310.542529 2895.894963 300.11289 2903.234701 285.065748L3022.174458 30.959772C3031.390061 11.996039 3050.451622 0 3071.350458 0 3092.249293 0 3111.255891 11.994854 3120.526458 30.959772L3234.801107 285.059826C3242.139674 300.111705 3256.322118 310.544896 3272.730099 312.960206L3535.737338 358.858195C3556.362509 361.884436 3573.558733 376.545602 3579.976909 396.648319 3586.423155 416.749853 3580.992032 438.82389 3566.072806 453.567935L3566.072806 453.567935Z" p-id="3827" fill="#ff8a00"></path><path d="M4846.072806 453.567935 4657.475725 617.183857C4645.600691 628.901661 4640.182432 645.785152 4642.98688 662.331206L4687.518822 925.141766C4691.002746 945.966707 4687.524672 960.891904 4670.657075 973.330746 4661.112845 980.355277 4649.75824 983.937984 4638.403635 983.937984 4629.682726 983.937984 4620.932582 981.828141 4612.896998 977.551622L4374.767213 847.622163C4360.090074 839.811482 4342.557043 839.811482 4327.879904 847.622163L4099.745779 977.552806C4081.259603 987.409395 4058.880192 985.743546 4041.957632 973.33193 4025.090035 960.893088 4011.617478 945.995123 4015.156365 925.14295L4069.708525 656.876627C4072.511802 640.330573 4067.093536 623.447085 4055.21968 611.729281L3856.602374 453.567935C3841.600122 438.82389 3836.252032 416.749853 3842.670208 396.647136 3849.142182 376.544419 3866.284608 361.911667 3886.963578 358.857011L4145.310387 312.957839C4161.714861 310.542529 4175.894963 300.11289 4183.234701 285.065748L4302.174458 30.959772C4311.390061 11.996039 4330.451622 0 4351.350458 0 4372.249293 0 4391.255891 11.994854 4400.526458 30.959772L4514.801107 285.059826C4522.139674 300.111705 4536.322118 310.544896 4552.730099 312.960206L4815.737338 358.858195C4836.362509 361.884436 4853.558733 376.545602 4859.976909 396.648319 4866.423155 416.749853 4860.992032 438.82389 4846.072806 453.567935L4846.072806 453.567935Z" p-id="3828" fill="#ff8a00"></path><path d="M6126.072806 453.567935 5937.475725 617.183857C5925.600691 628.901661 5920.182432 645.785152 5922.98688 662.331206L5967.518822 925.141766C5971.002746 945.966707 5967.524672 960.891904 5950.657075 973.330746 5941.112845 980.355277 5929.75824 983.937984 5918.403635 983.937984 5909.682726 983.937984 5900.932582 981.828141 5892.896998 977.551622L5654.767213 847.622163C5640.090074 839.811482 5622.557043 839.811482 5607.879904 847.622163L5379.745779 977.552806C5361.259603 987.409395 5338.880192 985.743546 5321.957632 973.33193 5305.090035 960.893088 5291.617478 945.995123 5295.156365 925.14295L5349.708525 656.876627C5352.511802 640.330573 5347.093536 623.447085 5335.21968 611.729281L5136.602374 453.567935C5121.600122 438.82389 5116.252032 416.749853 5122.670208 396.647136 5129.142182 376.544419 5146.284608 361.911667 5166.963578 358.857011L5425.310387 312.957839C5441.714861 310.542529 5455.894963 300.11289 5463.234701 285.065748L5582.174458 30.959772C5591.390061 11.996039 5610.451622 0 5631.350458 0 5652.249293 0 5671.255891 11.994854 5680.526458 30.959772L5794.801107 285.059826C5802.139674 300.111705 5816.322118 310.544896 5832.730099 312.960206L6095.737338 358.858195C6116.362509 361.884436 6133.558733 376.545602 6139.976909 396.648319 6146.423155 416.749853 6140.992032 438.82389 6126.072806 453.567935L6126.072806 453.567935Z" p-id="3829" fill="#ff8a00"></path></svg>