<?xml version="1.0" encoding="iso-8859-1"?>
<!-- Generator: Adobe Illustrator 19.0.0, SVG Export Plug-In . SVG Version: 6.00 Build 0)  -->
<svg version="1.1" id="Layer_1" xmlns="http://www.w3.org/2000/svg" xmlns:xlink="http://www.w3.org/1999/xlink" x="0px" y="0px"
	 viewBox="0 0 512 512" style="enable-background:new 0 0 512 512;" xml:space="preserve">
<circle style="fill:#175D76;" cx="256" cy="256" r="256"/>
<path style="fill:#00263F;" d="M271.112,511.543C405.459,503.722,512,392.311,512,256.002c0-8.251-0.405-16.405-1.169-24.455
	L316.335,37.05l-96.904,267.857l-6.399,124.33l29.26,29.26l-7.777,16.449L271.112,511.543z"/>
<rect x="234.52" y="293.943" style="fill:#F1333F;" width="12.798" height="181.01"/>
<rect x="273.36" y="293.943" style="fill:#97CC52;" width="12.798" height="181.01"/>
<g>
	<rect x="286.168" y="248.225" style="fill:#FFCF35;" width="12.798" height="181.01"/>
	<rect x="213.04" y="248.225" style="fill:#FFCF35;" width="12.798" height="181.01"/>
</g>
<rect x="256" y="278.394" style="fill:#A5E1EB;" width="12.798" height="181.01"/>
<polygon style="fill:#F1333F;" points="316.335,37.05 256.305,37.05 256.305,368.552 376.672,157.724 "/>
<polygon style="fill:#60C344;" points="195.662,37.05 135.325,157.724 255.998,368.902 256.305,368.552 256.305,37.05 "/>
<polygon style="fill:#FFECB3;" points="228.116,37.05 283.882,37.05 311.765,157.724 255.998,368.902 200.233,157.724 "/>
<polygon style="fill:#FFCF35;" points="283.882,37.05 256.305,37.05 256.305,368.145 311.765,157.724 "/>
<g>
</g>
<g>
</g>
<g>
</g>
<g>
</g>
<g>
</g>
<g>
</g>
<g>
</g>
<g>
</g>
<g>
</g>
<g>
</g>
<g>
</g>
<g>
</g>
<g>
</g>
<g>
</g>
<g>
</g>
</svg>
