<?xml version="1.0" encoding="iso-8859-1"?>
<!-- Generator: Adobe Illustrator 19.0.0, SVG Export Plug-In . SVG Version: 6.00 Build 0)  -->
<svg version="1.1" id="Layer_1" xmlns="http://www.w3.org/2000/svg" xmlns:xlink="http://www.w3.org/1999/xlink" x="0px" y="0px"
	 viewBox="0 0 512 512" style="enable-background:new 0 0 512 512;" xml:space="preserve">
<circle style="fill:#31BAFD;" cx="256" cy="256" r="256"/>
<path style="fill:#2B9ED8;" d="M452.865,215.578l-25.164,43.98l-79.353-82.299l-122.516-26.705l-62.18,26.705l63.959,63.959
	l-38.126,20.168l123.678,123.678l-31.175,11.564l-80.977-80.798l-37.94-12.297L73.156,213.62l10.166,49.564l21.423,75.355
	l172.572,172.572l0,0c125.459-10.343,225.258-111.144,234.039-237.04L452.865,215.578z"/>
<polygon style="fill:#FFD15D;" points="348.346,177.261 256,84.913 163.654,177.261 190.038,177.261 190.038,261.598 
	321.962,261.598 321.962,177.261 "/>
<polygon style="fill:#F9B54C;" points="256,84.914 256,261.598 321.962,261.598 321.962,177.261 348.346,177.261 "/>
<path style="fill:#FED8B2;" d="M448.403,212.328c-4.348-1.61-9.257-0.091-11.948,3.684c-0.038,0.055-0.078,0.107-0.117,0.16
	l-47.295,61.304c0.343,0.481,0.664,0.981,0.965,1.498c4.729,8.126,2.917,18.429-4.291,24.419l-34.164,28.532
	c-2.16,1.807-5.375,1.515-7.178-0.645c-1.807-2.16-1.553-5.429,0.645-7.178l34.164-28.532c3.36-2.834,4.234-7.651,2.014-11.467
	c-1.212-2.082-3.163-3.568-5.494-4.184c-2.331-0.615-4.761-0.286-6.844,0.926l-50.909,29.637
	c-5.716,3.331-10.34,8.197-13.367,14.083l-40.486,78.7l41.051,23.404l6.673-24.967c2.836-10.604,10.188-19.299,20.18-23.85
	l60.044-27.365c10.781-5.342,19.042-14.488,23.266-25.752l39.455-100.119C456.121,219.527,453.358,214.163,448.403,212.328z"/>
<path style="fill:#F4E3C3;" d="M63.597,212.328c4.348-1.61,9.257-0.091,11.948,3.684c0.038,0.055,0.078,0.107,0.117,0.16
	l47.295,61.304c-0.343,0.481-0.664,0.981-0.965,1.498c-4.729,8.126-2.917,18.429,4.291,24.419l34.164,28.532
	c2.16,1.807,5.375,1.515,7.178-0.645c1.807-2.16,1.553-5.429-0.645-7.178l-34.164-28.532c-3.36-2.834-4.234-7.651-2.014-11.467
	c1.212-2.082,3.163-3.568,5.494-4.184c2.331-0.615,4.761-0.286,6.844,0.926l50.909,29.637c5.716,3.331,10.34,8.197,13.367,14.083
	l40.486,78.7l-41.053,23.402l-6.673-24.967c-2.836-10.604-10.188-19.299-20.18-23.85l-60.044-27.365
	c-10.781-5.342-19.042-14.488-23.266-25.752L57.232,224.613C55.879,219.527,58.642,214.163,63.597,212.328z"/>
<g>
</g>
<g>
</g>
<g>
</g>
<g>
</g>
<g>
</g>
<g>
</g>
<g>
</g>
<g>
</g>
<g>
</g>
<g>
</g>
<g>
</g>
<g>
</g>
<g>
</g>
<g>
</g>
<g>
</g>
</svg>
