<?xml version="1.0" encoding="iso-8859-1"?>
<!-- Generator: Adobe Illustrator 19.0.0, SVG Export Plug-In . SVG Version: 6.00 Build 0)  -->
<svg version="1.1" id="Layer_1" xmlns="http://www.w3.org/2000/svg" xmlns:xlink="http://www.w3.org/1999/xlink" x="0px" y="0px"
	 viewBox="0 0 512 512" style="enable-background:new 0 0 512 512;" xml:space="preserve">
<circle style="fill:#273B7A;" cx="256" cy="256" r="256"/>
<path style="fill:#121149;" d="M349.699,111.695l-20.768,41.12l-57.189-56.779l-0.51,33.159L221.586,79.55l-5.279,105.236
	l34.523,57.073l27.02-24.285l6.641,15.765L177.79,426.667l85.233,85.233c132.213-3.562,239.404-107.368,248.354-238.171
	L349.699,111.695z"/>
<path style="fill:#FFC91B;" d="M317.916,259.972l-26.14,31.201l-9.916-39.477l32.589-141.969c1.362-5.934,5.442-6.789,9.993-5.744
	l19.577,4.494c4.551,1.045,7.849,3.594,6.487,9.528L317.916,259.972z"/>
<polygon points="291.774,291.175 300.658,280.59 288.396,277.776 "/>
<polygon style="fill:#FFEDB5;" points="281.859,251.697 281.859,251.697 288.396,277.776 300.658,280.59 317.914,259.974 
	317.914,259.974 "/>
<path style="fill:#D8A413;" d="M344.017,108.475l-7.954-1.826L291.48,289.995l0.295,1.176l26.14-31.201l32.59-141.969
	C351.866,112.068,348.569,109.52,344.017,108.475z"/>
<polygon points="291.478,290.001 291.774,291.175 300.658,280.59 294.131,279.092 "/>
<polygon points="288.396,277.776 291.478,290.001 294.131,279.092 "/>
<g>
	<polygon style="fill:#FFEDB5;" points="281.859,251.697 288.396,277.776 294.131,279.092 299.792,255.814 	"/>
	<polygon style="fill:#FFEDB5;" points="294.131,279.092 300.658,280.59 317.914,259.974 299.792,255.814 	"/>
</g>
<path style="fill:#FFC91B;" d="M233.065,229.035l-15.891,37.474l-21.011-34.861L185.877,86.35c-0.429-6.073,3.222-8.082,7.88-8.413
	l20.035-1.419c4.658-0.329,8.556,1.145,8.987,7.218L233.065,229.035z"/>
<polygon points="217.176,266.511 222.58,253.793 210.032,254.683 "/>
<path style="fill:#FF7F4F;" d="M222.779,83.737c-0.429-6.073-4.329-7.547-8.987-7.218l-20.035,1.419
	c-4.658,0.329-8.309,2.339-7.88,8.413l0.814,11.495l36.902-2.612L222.779,83.737z"/>
<rect x="200.96" y="82.542" transform="matrix(0.0706 0.9975 -0.9975 0.0706 291.7405 -111.0424)" style="fill:#C9C9C9;" width="9" height="36.993"/>
<polygon style="fill:#FFEDB5;" points="196.163,231.648 196.163,231.648 210.032,254.683 222.58,253.793 233.065,229.036 
	233.065,229.036 "/>
<path style="fill:#FFC91B;" d="M193.758,77.936c-4.658,0.329-8.309,2.339-7.88,8.413l10.287,145.298l20.016,33.209L203.004,77.283
	L193.758,77.936z"/>
<path style="fill:#D8A413;" d="M233.065,229.035L222.779,83.737c-0.429-6.073-4.329-7.547-8.987-7.218l-10.79,0.764l13.178,187.573
	l0.995,1.651L233.065,229.035z"/>
<polygon points="210.032,254.683 216.18,264.863 215.438,254.3 "/>
<polygon points="222.58,253.793 215.438,254.3 216.18,264.863 217.176,266.511 "/>
<g>
	<polygon style="fill:#FFEDB5;" points="196.163,231.65 210.032,254.683 215.438,254.3 213.759,230.403 	"/>
	<polygon style="fill:#FFEDB5;" points="233.065,229.036 213.759,230.403 215.438,254.3 222.58,253.793 	"/>
</g>
<path style="fill:#FFC91B;" d="M284.444,246.968l-15.891,37.474l-21.011-34.861l-10.287-145.298
	c-0.429-6.073,3.222-8.082,7.88-8.413l20.035-1.419c4.658-0.329,8.556,1.145,8.987,7.218L284.444,246.968z"/>
<polygon points="268.553,284.444 273.96,271.729 261.411,272.617 "/>
<path style="fill:#FF7F4F;" d="M274.158,101.671c-0.429-6.073-4.329-7.547-8.987-7.218l-20.035,1.419
	c-4.658,0.329-8.309,2.339-7.88,8.413l0.814,11.495l36.902-2.612L274.158,101.671z"/>
<rect x="252.341" y="100.453" transform="matrix(0.0706 0.9975 -0.9975 0.0706 357.3611 -145.6493)" style="fill:#C9C9C9;" width="9" height="36.993"/>
<polygon style="fill:#FFEDB5;" points="247.542,249.584 247.542,249.584 261.411,272.617 273.96,271.729 284.444,246.97 
	284.444,246.97 "/>
<path style="fill:#FFC91B;" d="M245.136,95.872c-4.658,0.329-8.309,2.339-7.88,8.413l10.287,145.298l20.059,33.283L253.774,95.261
	L245.136,95.872z"/>
<path style="fill:#D8A413;" d="M284.444,246.968l-10.287-145.298c-0.429-6.073-4.329-7.547-8.987-7.218l-11.397,0.807
	l13.827,187.604l0.952,1.579L284.444,246.968z"/>
<polygon points="261.411,272.617 267.604,282.871 266.819,272.234 "/>
<polygon points="273.96,271.729 266.819,272.234 267.604,282.871 268.553,284.444 "/>
<g>
	<polygon style="fill:#FFEDB5;" points="284.444,246.97 265.057,248.342 266.819,272.234 273.96,271.729 	"/>
	<polygon style="fill:#FFEDB5;" points="247.542,249.584 261.411,272.617 266.819,272.234 265.057,248.342 	"/>
</g>
<path style="fill:#71E2EF;" d="M191.497,431.838h129.005c11.505,0,20.83-9.326,20.83-20.83V204.283H170.667v206.726
	C170.667,422.512,179.993,431.838,191.497,431.838z"/>
<path style="fill:#5BC8CE;" d="M254.852,204.283v227.556h65.651c11.505,0,20.83-9.326,20.83-20.83V204.283H254.852z"/>
<rect x="162.909" y="199.111" style="fill:#38C6D9;" width="186.182" height="28.444"/>
<rect x="254.845" y="199.111" style="fill:#239CA5;" width="94.239" height="28.444"/>
<rect x="324.386" y="110.965" transform="matrix(-0.2237 0.9747 -0.9747 -0.2237 528.637 -162.1306)" style="fill:#C9C9C9;" width="9.001" height="36.995"/>
<polygon style="fill:#A3A3A3;" points="347.926,129.234 331.49,125.461 329.363,134.208 345.912,138.006 "/>
<path style="fill:#FF7F4F;" d="M350.505,118.001c1.362-5.934-1.936-8.483-6.487-9.528l-19.577-4.494
	c-4.551-1.045-8.63-0.19-9.993,5.744l-2.579,11.231l36.055,8.276L350.505,118.001z"/>
<path style="fill:#D85027;" d="M344.017,108.475l-7.952-1.826l-4.575,18.811l16.436,3.774l2.579-11.233
	C351.866,112.068,348.569,109.52,344.017,108.475z"/>
<polygon style="fill:#C9C9C9;" points="238.07,115.779 238.706,124.756 255.859,123.542 255.197,114.566 "/>
<polygon style="fill:#A3A3A3;" points="274.972,113.166 255.197,114.566 255.859,123.542 275.608,122.144 "/>
<path style="fill:#FF7F4F;" d="M245.136,95.872c-4.658,0.329-8.309,2.339-7.88,8.413l0.814,11.495l17.127-1.212l-1.424-19.306
	L245.136,95.872z"/>
<path style="fill:#D85027;" d="M274.158,101.671c-0.429-6.073-4.329-7.547-8.987-7.218l-11.397,0.807l1.424,19.306l19.775-1.4
	L274.158,101.671z"/>
<rect x="204.643" y="95.904" transform="matrix(-0.9975 0.0706 -0.0706 -0.9975 435.1221 185.4288)" style="fill:#A3A3A3;" width="19.282" height="9"/>
<rect x="191.343" y="92.853" transform="matrix(0.0706 0.9975 -0.9975 0.0706 283.47 -100.8277)" style="fill:#C9C9C9;" width="9" height="17.708"/>
<path style="fill:#FF7F4F;" d="M193.758,77.936c-4.658,0.329-8.309,2.339-7.88,8.413l0.814,11.495l17.668-1.252l-1.357-19.311
	L193.758,77.936z"/>
<path style="fill:#D85027;" d="M222.779,83.737c-0.429-6.073-4.329-7.547-8.987-7.218l-10.79,0.764l1.357,19.311l19.234-1.362
	L222.779,83.737z"/>
<g>
</g>
<g>
</g>
<g>
</g>
<g>
</g>
<g>
</g>
<g>
</g>
<g>
</g>
<g>
</g>
<g>
</g>
<g>
</g>
<g>
</g>
<g>
</g>
<g>
</g>
<g>
</g>
<g>
</g>
</svg>
