<?xml version="1.0" standalone="no"?><!DOCTYPE svg PUBLIC "-//W3C//DTD SVG 1.1//EN" "http://www.w3.org/Graphics/SVG/1.1/DTD/svg11.dtd"><svg t="1498018233340" class="icon" style="" viewBox="0 0 1024 1024" version="1.1" xmlns="http://www.w3.org/2000/svg" p-id="6224" xmlns:xlink="http://www.w3.org/1999/xlink" width="16" height="16"><defs><style type="text/css"></style></defs><path d="M511.999488 5.794983c-279.567253 0-506.1999 226.64288-506.1999 506.20911 0 279.55702 226.632647 506.198877 506.1999 506.198877 279.56623 0 506.1999-226.641857 506.199901-506.198877 0-279.565207-226.63367-506.20911-506.199901-506.20911z" fill="#F9B32F" p-id="6225"></path><path d="M454.458981 269.020036H306.108235c-20.484543 0-37.084617 16.609283-37.084617 37.093827v148.350746c0 20.48659 16.601096 37.093826 37.084617 37.093826h148.350746c20.484543 0 37.093826-16.607236 37.093826-37.093826V306.113863c0-20.484543-16.610306-37.093826-37.093826-37.093827z m-18.539239 166.897148h-111.264083V324.641845h111.264083v111.275339zM717.888695 269.020036H569.538973c-20.48659 0-37.095873 16.609283-37.095873 37.093827v148.350746c0 20.48659 16.609283 37.093826 37.095873 37.093826h148.349722c20.47738 0 37.086663-16.607236 37.086664-37.093826V306.113863c0-20.484543-16.609283-37.093826-37.086664-37.093827z m-18.546401 166.897148H588.077188V324.641845h111.265106v111.275339z m18.546401 96.53359H569.538973c-20.48659 0-37.095873 16.609283-37.095873 37.093827v148.340513c0 20.48659 16.609283 37.09485 37.095873 37.09485h148.349722c20.47738 0 37.086663-16.60826 37.086664-37.09485V569.544601c0-20.48352-16.609283-37.093826-37.086664-37.093827z m-18.546401 166.885892H588.077188v-111.243617h111.265106v111.243617zM454.458981 532.450774H306.108235c-20.484543 0-37.084617 16.609283-37.084617 37.093827v148.340513c0 20.48659 16.601096 37.09485 37.084617 37.09485h148.350746c20.484543 0 37.093826-16.60826 37.093826-37.09485V569.544601c0-20.48352-16.610306-37.093826-37.093826-37.093827z m-18.539239 166.885892h-111.264083v-111.243617h111.264083v111.243617z" fill="#FFFFFF" p-id="6226"></path></svg>