<?xml version="1.0" standalone="no"?><!DOCTYPE svg PUBLIC "-//W3C//DTD SVG 1.1//EN" "http://www.w3.org/Graphics/SVG/1.1/DTD/svg11.dtd"><svg class="icon" width="16px" height="15.95px" viewBox="0 0 1027 1024" version="1.1" xmlns="http://www.w3.org/2000/svg"><path fill="#888888" d="M727.327103 39.875389c-84.535826 0-161.096573 51.040498-210.542056 94.105919l-4.785047 4.785047-4.785047-4.785047c-49.445483-43.065421-126.006231-94.105919-210.542056-94.105919C116.436137 39.875389 0 161.096573 0 347.713396c0 149.931464 118.031153 267.962617 132.386293 282.317757l4.785047 4.785046 317.408099 323.788162c15.950156 15.950156 36.685358 25.520249 59.015577 25.52025 22.330218 0 43.065421-9.570093 59.015576-25.52025l322.193146-328.573208c30.305296-31.900312 132.386293-145.146417 132.386293-282.317757-3.190031-186.616822-119.626168-307.838006-299.862928-307.838007z m122.816199 548.685359L527.950156 917.133956c-4.785047 4.785047-9.570093 6.380062-14.35514 6.380063-6.380062 0-11.165109-3.190031-15.950156-7.975078L173.856698 586.965732c-1.595016-1.595016-113.246106-108.461059-113.246106-239.252336 0-154.716511 89.320872-248.82243 237.657321-248.82243 79.750779 0 156.311526 63.800623 194.5919 100.485981l20.735203 20.735203 20.735202-20.735203c38.280374-38.280374 114.841121-100.485981 194.5919-100.485981 148.336449 0 237.657321 92.510903 237.657321 248.82243-1.595016 114.841121-89.320872 213.732087-116.436137 240.847352z" /></svg>