<?xml version="1.0" standalone="no"?><!DOCTYPE svg PUBLIC "-//W3C//DTD SVG 1.1//EN" "http://www.w3.org/Graphics/SVG/1.1/DTD/svg11.dtd"><svg t="1498050028349" class="icon" style="" viewBox="0 0 1024 1024" version="1.1" xmlns="http://www.w3.org/2000/svg" p-id="2926" xmlns:xlink="http://www.w3.org/1999/xlink" width="16" height="16"><defs><style type="text/css"></style></defs><path d="M952.995853 296.471248c-5.500271-6.885827-13.773701-10.904351-22.448268-10.904351L262.238586 285.566898l-41.60456-151.59872c-3.3984-12.393261-14.282285-21.056572-26.91807-21.459754l-99.30368-3.099594c-15.870456-0.801249-29.250184 12.222369-29.759791 28.402887-0.505513 16.179494 12.016685 29.78128 27.999704 30.29805l78.104869 2.408863 154.7372 563.30448c0 0.171915 0.11154 0.284479 0.167822 0.399089 0.907673 2.986007 2.153036 5.796006 3.797489 8.265244 0.116657 0.227174 0.285502 0.402159 0.454348 0.629333 1.642406 2.408863 3.62762 4.474918 5.894244 6.200212 0.172939 0.170892 0.397043 0.283456 0.566912 0.398066 2.325975 1.662873 4.820796 3.099594 7.540743 4.018523 0.169869 0.057305 0.337691 0.11461 0.51063 0.11461 2.719948 0.918929 5.609765 1.378393 8.615215 1.435699 0.055259 0 0.11154 0.057305 0.167822 0.057305l0.11154 0 490.562758 0c13.603833 0 25.393343-9.697873 28.228925-23.242354l86.547145-411.073356C960.588785 312.363194 958.49203 303.354006 952.995853 296.471248L952.995853 296.471248 952.995853 296.471248 952.995853 296.471248zM894.786103 344.268858l-21.652136 102.824877c-0.172939 0-0.229221-0.057305-0.341784-0.057305L314.441529 447.036429l-25.223474-102.767572L894.786103 344.268858 894.786103 344.268858 894.786103 344.268858 894.786103 344.268858zM848.420099 564.435233 343.349929 564.435233l-14.456247-58.70196 531.938098 0L848.420099 564.435233 848.420099 564.435233 848.420099 564.435233 848.420099 564.435233zM375.825574 696.639231l-18.024515-73.389474 478.260571 0-15.359826 73.389474L375.825574 696.639231 375.825574 696.639231 375.825574 696.639231 375.825574 696.639231zM462.090287 784.66403c-34.290991 0-62.118779 29.090549-62.118779 65.008596 0.056282 35.862789 27.826765 64.953338 62.118779 64.953338 34.292014 0 62.067614-29.090549 62.067614-64.953338C524.157901 813.753555 496.382301 784.66403 462.090287 784.66403M752.969167 784.66403c-34.290991 0-62.118779 29.090549-62.118779 65.008596 0 35.862789 27.770484 64.953338 62.118779 64.953338 34.347273 0 62.122873-29.090549 62.122873-64.953338C815.036781 813.753555 787.262204 784.66403 752.969167 784.66403" p-id="2927" fill="#ff8a00"></path></svg>