<?xml version="1.0" standalone="no"?><!DOCTYPE svg PUBLIC "-//W3C//DTD SVG 1.1//EN" "http://www.w3.org/Graphics/SVG/1.1/DTD/svg11.dtd"><svg class="icon" width="16px" height="16.00px" viewBox="0 0 1024 1024" version="1.1" xmlns="http://www.w3.org/2000/svg"><path fill="#888888" d="M887.161 55.348l-8.355-12.589L157.644 42.759l-8.437 10.799C-34.556 288.156-9.128 431 22.351 495.317c31.589 64.426 95.543 106.121 162.997 106.121l6.079 0c85.106-3.387 141.706-45.649 171.518-76.252 26.926 30.603 77.612 71.519 156.946 71.519 82.722 0 134.321-44.538 160.165-75.461 36.086 29.424 106.536 77.64 180.374 77.64 48.412 0 89.883-19.846 123.663-58.958C1109.42 393.985 896.292 69.101 887.161 55.348zM940.817 503.283c-22.708 26.579-49.022 39.265-80.501 39.265-71.171 0-145.091-64.454-161.582-79.764L698.734 269.559c0.028-0.542 0.308-0.944 0.308-1.472 0-15.656-12.657-28.313-28.259-28.313-15.625 0-28.258 12.657-28.258 28.313l-0.305 0 0 210.103c-15.435 21.041-54.546 62.179-122.33 62.179-76.531 0-116.391-52.325-127.188-68.952l0-203.33c0-15.656-12.658-28.313-28.232-28.313-15.626 0-28.285 12.657-28.285 28.313L336.185 470.39c-13.851 18.014-61.512 71.34-147.035 74.863l-3.803 0 0-0.056c-37.724 0-87.05-23.137-112.228-74.698C47.889 419.063 29.597 302.811 185.291 99.092l662.841 0C906.979 192.084 1018.597 413.056 940.817 503.283zM889.603 633.499c-15.685 0-28.453 12.714-28.506 28.396l0 0.054c0 0.057 0 0.057 0 0.112 0 0 0 0.027 0 0.069l0 204.968c0 31.534-25.567 57.073-57.016 57.073L559.779 924.171c-0.026 0-0.026 0-0.055 0L219.546 924.171c-31.451 0-57.017-25.539-57.017-57.073L162.529 661.979c-0.028-15.739-12.768-28.48-28.481-28.48-15.711 0-28.452 12.741-28.507 28.48L105.541 872.79c0 59.929 48.465 108.451 108.286 108.451l595.97 0c59.82 0 108.285-48.522 108.285-108.451L918.082 661.896C918.001 646.211 905.286 633.499 889.603 633.499z" /></svg>